<?xml version="1.0" standalone="no"?>
<!DOCTYPE svg PUBLIC "-//W3C//DTD SVG 20010904//EN"
 "http://www.w3.org/TR/2001/REC-SVG-20010904/DTD/svg10.dtd">
<svg version="1.0" xmlns="http://www.w3.org/2000/svg"
 width="200.000000pt" height="200.000000pt" viewBox="0 0 200.000000 200.000000"
 preserveAspectRatio="xMidYMid meet">

<g transform="translate(0.000000,200.000000) scale(0.100000,-0.100000)"
fill="#000000" stroke="none">
<path d="M940 1660 c0 -5 -5 -10 -11 -10 -6 0 -30 -14 -55 -32 -31 -22 -48
-44 -60 -77 -9 -25 -20 -54 -25 -63 -5 -10 -9 -25 -9 -33 0 -8 -4 -15 -10 -15
-32 0 15 -69 48 -70 18 0 15 -17 -8 -40 l-21 -21 25 -47 c31 -58 49 -118 41
-132 -7 -11 -72 -30 -123 -35 -21 -1 -40 -3 -44 -4 -5 -1 -8 -8 -8 -16 0 -8
-10 -19 -22 -26 -33 -17 -88 -71 -88 -86 0 -9 -16 -13 -51 -13 -60 0 -89 -13
-89 -40 0 -16 7 -20 30 -20 17 0 30 5 30 10 0 6 -11 8 -25 4 -15 -4 -25 -2
-25 5 0 16 35 31 73 31 31 0 35 -3 39 -32 3 -18 3 -51 0 -75 l-5 -43 -48 0
c-50 0 -67 15 -26 23 16 3 13 5 -10 6 -27 1 -33 -3 -33 -19 0 -18 7 -20 58
-20 32 0 61 -2 63 -5 9 -8 -3 -75 -12 -69 -5 3 -9 -5 -9 -17 0 -20 -4 -21 -43
-15 -34 5 -47 3 -57 -10 -13 -14 -9 -15 41 -12 43 2 54 0 54 -12 0 -12 -12
-14 -55 -12 l-55 2 35 -18 c19 -11 52 -22 72 -26 35 -6 37 -9 40 -49 3 -39 7
-44 48 -64 43 -22 52 -23 366 -23 l321 0 31 30 c18 16 39 30 48 30 21 0 111
66 124 90 6 10 10 101 10 203 l0 185 -64 49 c-58 45 -71 50 -147 62 -46 7 -94
19 -106 26 -20 13 -20 17 -8 58 7 23 22 58 34 77 25 41 27 68 6 76 -24 10 -17
31 15 51 27 15 42 53 22 53 -8 0 -24 35 -41 90 -15 47 -65 101 -129 138 -26
14 -152 16 -152 2z m126 -56 c0 -35 7 -60 22 -81 14 -20 22 -46 22 -72 l0 -41
68 -1 67 -2 -60 -7 c-89 -11 -378 -11 -395 0 -10 7 7 10 58 10 l72 0 0 44 c0
28 7 52 20 69 15 18 20 40 20 82 l0 56 53 -3 52 -3 1 -51z m-129 -36 c-2 -13
-4 -3 -4 22 0 25 2 35 4 23 2 -13 2 -33 0 -45z m160 0 c-2 -13 -4 -3 -4 22 0
25 2 35 4 23 2 -13 2 -33 0 -45z m-187 13 c0 -15 -3 -56 -6 -90 -7 -59 -8 -61
-35 -61 -19 0 -29 5 -29 15 0 9 -6 18 -14 21 -32 12 35 144 73 144 6 0 11 -13
11 -29z m254 -3 c17 -24 23 -41 19 -60 -6 -30 -14 -34 -44 -18 -15 8 -19 22
-19 60 0 28 4 50 9 50 6 0 21 -15 35 -32z m-344 -138 c0 -5 -4 -10 -10 -10 -5
0 -10 5 -10 10 0 6 5 10 10 10 6 0 10 -4 10 -10z m365 -95 c0 -13 -5 -18 -15
-15 -8 2 -70 6 -136 8 -98 3 -128 0 -153 -12 l-31 -17 0 31 0 30 168 -2 c159
-3 167 -4 167 -23z m-339 -60 c18 -43 18 -56 0 -49 -18 7 -40 59 -31 73 10 17
15 13 31 -24z m287 13 c16 -8 18 -17 13 -51 -4 -23 -8 -43 -10 -44 -2 -2 -28
5 -58 17 -43 16 -58 27 -71 55 -9 20 -17 38 -17 42 0 9 121 -7 143 -19z m87 3
c0 -5 -5 -22 -10 -37 -7 -18 -14 -24 -21 -17 -7 7 -6 19 2 36 12 26 29 36 29
18z m-315 -121 c7 0 34 9 60 20 l47 20 60 -22 c50 -18 64 -19 80 -9 18 11 19
10 13 -11 -4 -13 -18 -47 -31 -76 -19 -44 -31 -56 -67 -72 -48 -21 -76 -18
-121 13 -28 20 -69 95 -81 152 -7 30 -7 30 9 8 10 -13 23 -23 31 -23z m5 -142
c0 -11 85 -48 111 -48 13 0 41 9 62 20 l37 20 0 -51 c0 -44 -4 -55 -31 -80
-50 -47 -72 -47 -137 -3 -72 49 -102 94 -102 149 0 23 3 45 7 49 6 6 52 -41
53 -56z m436 -82 c-3 -56 -9 -143 -12 -193 l-7 -93 -28 0 c-28 0 -29 1 -29 55
l0 55 -77 0 c-84 0 -113 -14 -113 -57 0 -22 -3 -23 -74 -23 l-75 0 -3 43 -3
42 -102 0 c-55 0 -103 2 -106 5 -2 3 -7 62 -10 132 -7 142 -12 133 73 144 l50
7 0 -41 c0 -50 50 -127 98 -153 19 -9 41 -24 51 -33 29 -26 64 -18 128 28 65
48 103 108 103 162 0 17 2 33 5 35 2 3 34 1 71 -5 l67 -10 -7 -100z m108 30
l48 -41 -7 -165 c-8 -181 -7 -179 -79 -231 -38 -28 -43 -29 -159 -29 l-121 0
-63 41 c-45 29 -63 48 -63 63 0 21 3 21 142 18 172 -4 220 2 256 33 26 22 27
27 30 138 l4 114 -31 26 c-22 19 -31 34 -31 57 0 36 2 35 74 -24z m-777 -132
c-9 -245 -3 -254 186 -254 l89 0 89 -55 89 -55 87 -2 c75 -1 68 -2 -52 -8 -77
-4 -143 -6 -147 -3 -5 2 -8 18 -8 34 l0 30 -163 -3 c-178 -3 -188 0 -244 60
-22 24 -23 31 -23 190 l0 164 39 39 c64 64 65 61 58 -137z m731 -20 c3 -95 -2
-134 -18 -134 -6 0 -10 47 -10 116 0 88 3 115 13 112 8 -3 13 -34 15 -94z
m-648 -110 c0 -20 -5 -24 -29 -24 -25 0 -28 3 -24 24 5 23 28 38 46 29 4 -2 7
-15 7 -29z m140 6 c0 -28 -2 -30 -40 -30 -38 0 -40 2 -40 30 0 28 2 30 40 30
38 0 40 -2 40 -30z m280 10 c0 -5 11 -10 25 -10 14 0 25 5 25 10 0 6 5 10 10
10 6 0 10 -16 10 -35 l0 -35 -55 0 -55 0 0 35 c0 28 4 35 20 35 11 0 20 -4 20
-10z m-242 -87 c-3 -15 -17 -18 -97 -21 -109 -3 -129 1 -111 23 10 11 36 15
112 15 89 0 99 -2 96 -17z m42 -19 c0 -8 -4 -12 -10 -9 -5 3 -10 10 -10 16 0
5 5 9 10 9 6 0 10 -7 10 -16z"/>
<path d="M767 902 c-11 -16 6 -102 19 -102 10 0 14 15 14 55 0 41 -4 55 -14
55 -8 0 -17 -3 -19 -8z"/>
<path d="M1257 902 c-11 -16 6 -102 19 -102 10 0 14 15 14 55 0 41 -4 55 -14
55 -8 0 -17 -3 -19 -8z"/>
<path d="M1004 739 c-10 -17 13 -36 27 -22 12 12 4 33 -11 33 -5 0 -12 -5 -16
-11z"/>
<path d="M1364 1488 c-4 -7 -3 -8 5 -4 6 4 20 2 29 -6 15 -12 16 -11 3 5 -16
20 -27 22 -37 5z"/>
<path d="M599 1453 c-13 -16 -12 -17 4 -4 9 7 17 15 17 17 0 8 -8 3 -21 -13z"/>
<path d="M1326 1457 c3 -10 9 -15 12 -12 3 3 0 11 -7 18 -10 9 -11 8 -5 -6z"/>
<path d="M1367 1459 c7 -7 15 -10 18 -7 3 3 -2 9 -12 12 -14 6 -15 5 -6 -5z"/>
<path d="M517 1350 c-14 -11 -29 -29 -32 -40 -7 -22 20 -80 38 -81 6 0 22 -2
35 -3 27 -3 72 38 72 65 0 11 -6 29 -12 42 -7 12 -13 23 -13 23 0 1 -14 5 -31
8 -23 5 -37 2 -57 -14z m79 -4 c1 0 6 -15 12 -33 9 -27 7 -34 -12 -52 -12 -12
-30 -21 -39 -21 -21 0 -57 39 -57 61 0 26 49 61 74 53 12 -4 21 -7 22 -8z"/>
<path d="M525 1310 c-14 -43 44 -67 68 -28 8 12 7 21 -2 32 -19 23 -58 20 -66
-4z m53 -13 c2 -12 -3 -17 -17 -17 -12 0 -21 6 -21 13 0 31 32 34 38 4z"/>
<path d="M1558 1253 c7 -3 16 -2 19 1 4 3 -2 6 -13 5 -11 0 -14 -3 -6 -6z"/>
<path d="M1590 1251 c0 -6 4 -13 10 -16 6 -3 7 1 4 9 -7 18 -14 21 -14 7z"/>
<path d="M1505 1220 c-18 -20 -18 -24 -4 -48 20 -37 71 -42 93 -10 12 17 16
19 16 6 0 -9 -6 -19 -12 -21 -8 -4 -7 -6 3 -6 10 -1 19 9 21 24 3 15 1 25 -6
25 -6 0 -16 10 -21 23 -14 31 -65 35 -90 7z m55 -31 c0 -5 -7 -9 -15 -9 -15 0
-20 12 -9 23 8 8 24 -1 24 -14z"/>
<path d="M1610 1210 c0 -5 5 -10 11 -10 5 0 7 5 4 10 -3 6 -8 10 -11 10 -2 0
-4 -4 -4 -10z"/>
<path d="M1575 1120 c-3 -5 -1 -10 4 -10 6 0 11 5 11 10 0 6 -2 10 -4 10 -3 0
-8 -4 -11 -10z"/>
<path d="M394 1099 c-3 -6 -1 -16 5 -22 8 -8 11 -5 11 11 0 24 -5 28 -16 11z"/>
<path d="M321 1054 c-16 -36 6 -70 51 -77 41 -6 68 7 68 33 0 17 -7 20 -49 20
-30 0 -51 -5 -54 -12 -3 -8 -6 -5 -6 5 -1 10 4 27 9 38 6 10 7 19 2 19 -5 0
-14 -12 -21 -26z"/>
<path d="M1617 843 c17 -25 21 -27 42 -14 20 13 1 36 -30 36 -25 1 -26 0 -12
-22z"/>
<path d="M437 854 c-14 -15 7 -24 51 -23 26 1 38 3 27 6 -11 3 -24 9 -29 14
-11 10 -40 12 -49 3z"/>
<path d="M1577 801 c3 -14 14 -21 29 -21 22 0 28 -8 25 -35 0 -6 8 -11 19 -12
16 -1 20 4 20 27 0 24 -5 29 -37 35 -21 4 -43 11 -50 16 -8 7 -10 4 -6 -10z"/>
<path d="M1545 759 c-4 -6 -4 -13 -1 -16 8 -8 36 5 36 17 0 13 -27 13 -35 -1z"/>
<path d="M448 743 c-28 -7 -21 -21 7 -15 14 2 25 8 25 13 0 9 -4 10 -32 2z"/>
<path d="M430 698 c0 -10 39 -9 65 2 15 7 10 9 -22 8 -24 -1 -43 -6 -43 -10z"/>
</g>
</svg>
